# xmcd
#
# Track frame offsets:
#       150
#       4212
#       19152
#       33678
#       37415
#       53708
#       66728
#       78558
#       110449
#       125411
#       143118
#       155309
#       157399
#       161364
#       174353
#       184390
#       198922
#       206201
#       211083
#       225270
#       235255
#       244537
#       258540
#       269263
#       282529
#
# Disc length: 4016 seconds
#
# Revision: 2
# Processed by: cddbd v1.5.2PL0 Copyright (c) Steve Scherf et al.
# Submitted via: FreeDbEdit v0.1
#
DISCID=720fae19
DTITLE=The Stanley Brothers - Folk Festival
DYEAR=2001
DGENRE=Bluegrass
TTITLE0=Theme - Old Joe Clark
TTITLE1=Orange Blossom Special
TTITLE2=I Know What I Means to Be Lonesome
TTITLE3=Cripple Creek
TTITLE4=Gonna Paint the Town
TTITLE5=The Window Above
TTITLE6=Sunny Side of the Mountian
TTITLE7=Comedy With Chick Stripling
TTITLE8=Chicken Reel
TTITLE9=Rank Strangers
TTITLE10=How Far to Little Rock
TTITLE11=Theme - Old Joe Clark (2)
TTITLE12=Theme - Turkey in the Straw
TTITLE13=Black Mountian Blues
TTITLE14=Wreck of the Old 97
TTITLE15=Jack and May
TTITLE16=Cumberland Gap
TTITLE17=Jenny Lynn
TTITLE18=The Story of the Lawson Family
TTITLE19=Comedy With Chick Stripling (2)
TTITLE20=Johnson Had a Old Gray Mule
TTITLE21=Chicken Reel (2)
TTITLE22=Nine Pound Hammer
TTITLE23=I'm a Man of Constant Sorrow
TTITLE24=Come All You Tenderhearted
EXTD=Produced By Dr. Ralph Stanley From the material recorded at the U
EXTD=niversity of Chigago Folk festival 1961 and 1965
EXTT0=
EXTT1=
EXTT2=
EXTT3=
EXTT4=
EXTT5=
EXTT6=
EXTT7=
EXTT8=
EXTT9=
EXTT10=
EXTT11=
EXTT12=
EXTT13=
EXTT14=
EXTT15=
EXTT16=
EXTT17=
EXTT18=
EXTT19=
EXTT20=
EXTT21=
EXTT22=
EXTT23=
EXTT24=
PLAYORDER=
